<svg xmlns="http://www.w3.org/2000/svg" xmlns:xlink="http://www.w3.org/1999/xlink" width="472.547" height="400" viewBox="0 0 472.547 400">
  <defs>
    <style>
      .cls-1, .cls-14, .cls-9 {
        fill: #f0f0f0;
      }

      .cls-2, .cls-7 {
        fill: #fff;
      }

      .cls-3 {
        fill: rgba(31,31,31,0.03);
      }

      .cls-16, .cls-4 {
        fill: none;
      }

      .cls-13, .cls-4 {
        stroke: #707070;
      }

      .cls-5 {
        font-size: 5px;
        font-family: HiraginoSans-W3, Hiragino Sans;
      }

      .cls-5, .cls-8 {
        letter-spacing: -0.01em;
      }

      .cls-6 {
        fill: #00a67b;
      }

      .cls-7 {
        stroke: #1f1f1f;
      }

      .cls-8 {
        fill: #1f1f1f;
        stroke: rgba(0,0,0,0);
        stroke-miterlimit: 10;
        font-size: 6px;
        font-family: HiraginoSans-W6, Hiragino Sans;
      }

      .cls-9 {
        font-size: 10px;
      }

      .cls-14, .cls-9 {
        font-family: TsukuARdGothic-Bold, Tsukushi A Round Gothic;
        font-weight: 700;
      }

      .cls-10 {
        fill: #ffdb54;
      }

      .cls-11 {
        fill: #549cff;
      }

      .cls-12 {
        fill: #ff5454;
      }

      .cls-13 {
        fill: #707070;
      }

      .cls-14 {
        font-size: 18px;
      }

      .cls-15 {
        stroke: none;
      }

      .cls-17 {
        filter: url(#Area-3);
      }

      .cls-18 {
        filter: url(#Area-2);
      }

      .cls-19 {
        filter: url(#Area);
      }
    </style>
    <filter id="Area" x="153.166" y="100.673" width="319.381" height="294.02" filterUnits="userSpaceOnUse">
      <feOffset dx="8" dy="16" input="SourceAlpha"/>
      <feGaussianBlur stdDeviation="16" result="blur"/>
      <feFlood flood-color="#1f1f1f" flood-opacity="0.078"/>
      <feComposite operator="in" in2="blur"/>
      <feComposite in="SourceGraphic"/>
    </filter>
    <filter id="Area-2" x="3.166" y="106.614" width="219.021" height="170.257" filterUnits="userSpaceOnUse">
      <feOffset dx="8" dy="16" input="SourceAlpha"/>
      <feGaussianBlur stdDeviation="16" result="blur-2"/>
      <feFlood flood-color="#1f1f1f" flood-opacity="0.078"/>
      <feComposite operator="in" in2="blur-2"/>
      <feComposite in="SourceGraphic"/>
    </filter>
    <filter id="Area-3" x="40.75" y="146.376" width="126.777" height="65.822" filterUnits="userSpaceOnUse">
      <feOffset dy="8" input="SourceAlpha"/>
      <feGaussianBlur stdDeviation="8" result="blur-3"/>
      <feFlood flood-color="#1f1f1f" flood-opacity="0.122"/>
      <feComposite operator="in" in2="blur-3"/>
      <feComposite in="SourceGraphic"/>
    </filter>
  </defs>
  <g id="交通費精算アプリ" transform="translate(-16653 -352)">
    <path id="Background" class="cls-1" d="M0,0H449.747V396.04H0Z" transform="translate(16653 355.96)"/>
    <g class="cls-19" transform="matrix(1, 0, 0, 1, 16653, 352)">
      <rect id="Area-4" data-name="Area" class="cls-2" width="223.381" height="198.02" rx="8" transform="translate(193.17 132.67)"/>
    </g>
    <g class="cls-18" transform="matrix(1, 0, 0, 1, 16653, 352)">
      <rect id="Area-5" data-name="Area" class="cls-2" width="123.022" height="74.257" rx="8" transform="translate(43.17 138.61)"/>
    </g>
    <rect id="Base" class="cls-3" width="205.036" height="23.762" transform="translate(16852.639 510.416)"/>
    <line id="Divider" class="cls-4" x2="205.036" transform="translate(16852.639 534.178)"/>
    <line id="Divider-2" data-name="Divider" class="cls-4" x2="205.036" transform="translate(16852.639 553.98)"/>
    <line id="Divider-3" data-name="Divider" class="cls-4" x2="205.036" transform="translate(16852.639 573.782)"/>
    <line id="Divider-4" data-name="Divider" class="cls-4" x2="205.036" transform="translate(16852.639 593.584)"/>
    <line id="Divider-5" data-name="Divider" class="cls-4" x2="205.036" transform="translate(16852.639 613.386)"/>
    <line id="Divider-6" data-name="Divider" class="cls-4" x2="205.036" transform="translate(16852.639 633.188)"/>
    <line id="Divider-7" data-name="Divider" class="cls-4" x2="205.036" transform="translate(16852.639 652.99)"/>
    <text id="Label" class="cls-5" transform="translate(16865.625 521)"><tspan x="0" y="0">ルート</tspan></text>
    <text id="Label-2" data-name="Label" class="cls-5" transform="translate(16920.625 521.317)"><tspan x="0" y="0">値段</tspan></text>
    <text id="Label-3" data-name="Label" class="cls-5" transform="translate(16981.148 521.317)"><tspan x="0" y="0">日付</tspan></text>
    <text id="Label-4" data-name="Label" class="cls-5" transform="translate(17030.697 521.317)"><tspan x="0" y="0">状態</tspan></text>
    <path id="長方形_20" data-name="長方形 20" class="cls-6" d="M10,0H113.022a10,10,0,0,1,10,10V27.723a0,0,0,0,1,0,0H0a0,0,0,0,1,0,0V10A10,10,0,0,1,10,0Z" transform="translate(16696.166 476.752)"/>
    <path id="長方形_21" data-name="長方形 21" class="cls-6" d="M10,0H213.381a10,10,0,0,1,10,10V27.723a0,0,0,0,1,0,0H0a0,0,0,0,1,0,0V10A10,10,0,0,1,10,0Z" transform="translate(16846.166 476.752)"/>
    <g class="cls-17" transform="matrix(1, 0, 0, 1, 16653, 352)">
      <g id="Area-6" data-name="Area" class="cls-7" transform="translate(64.75 162.38)">
        <rect class="cls-15" width="78.777" height="17.822" rx="4"/>
        <rect class="cls-16" x="0.5" y="0.5" width="77.777" height="16.822" rx="3.5"/>
      </g>
    </g>
    <text id="Label-5" data-name="Label" class="cls-8" transform="translate(16754.625 525)"><tspan x="-23.79" y="0">交通費を申請する</tspan></text>
    <text id="交通費申請フォーム" class="cls-9" transform="translate(16704.799 493.634)"><tspan x="0" y="0">交通費申請フォーム</tspan></text>
    <text id="申請一覧" class="cls-9" transform="translate(16860.193 493.634)"><tspan x="0" y="0">申請一覧</tspan></text>
    <path id="パス_6" data-name="パス 6" class="cls-10" d="M3.373,0h8.995a3.191,3.191,0,0,1,3.373,2.97,3.191,3.191,0,0,1-3.373,2.97H3.373A3.191,3.191,0,0,1,0,2.97,3.191,3.191,0,0,1,3.373,0Z" transform="translate(17028.541 542.099)"/>
    <path id="パス_6-2" data-name="パス 6" class="cls-11" d="M3.373,0h8.995a3.191,3.191,0,0,1,3.373,2.97,3.191,3.191,0,0,1-3.373,2.97H3.373A3.191,3.191,0,0,1,0,2.97,3.191,3.191,0,0,1,3.373,0Z" transform="translate(17028.541 561.901)"/>
    <path id="パス_6-3" data-name="パス 6" class="cls-12" d="M3.373,0h8.995a3.191,3.191,0,0,1,3.373,2.97,3.191,3.191,0,0,1-3.373,2.97H3.373A3.191,3.191,0,0,1,0,2.97,3.191,3.191,0,0,1,3.373,0Z" transform="translate(17028.541 581.703)"/>
    <path id="パス_6-4" data-name="パス 6" class="cls-6" d="M3.373,0h8.995a3.191,3.191,0,0,1,3.373,2.97,3.191,3.191,0,0,1-3.373,2.97H3.373A3.191,3.191,0,0,1,0,2.97,3.191,3.191,0,0,1,3.373,0Z" transform="translate(17028.541 601.505)"/>
    <path id="パス_6-5" data-name="パス 6" class="cls-10" d="M3.373,0h8.995a3.191,3.191,0,0,1,3.373,2.97,3.191,3.191,0,0,1-3.373,2.97H3.373A3.191,3.191,0,0,1,0,2.97,3.191,3.191,0,0,1,3.373,0Z" transform="translate(17028.541 621.307)"/>
    <path id="パス_6-6" data-name="パス 6" class="cls-11" d="M3.373,0h8.995a3.191,3.191,0,0,1,3.373,2.97,3.191,3.191,0,0,1-3.373,2.97H3.373A3.191,3.191,0,0,1,0,2.97,3.191,3.191,0,0,1,3.373,0Z" transform="translate(17028.541 641.109)"/>
    <g id="長方形_18" data-name="長方形 18" class="cls-13" transform="translate(16653 352)">
      <rect class="cls-15" width="450" height="79.208"/>
      <rect class="cls-16" x="0.5" y="0.5" width="449" height="78.208"/>
    </g>
    <text id="交通費App" class="cls-14" transform="translate(16708.582 397.733)"><tspan x="0" y="0">交通費App</tspan></text>
    <text id="ようこそ_さん_ログアウト" data-name="ようこそ○○さん｜ログアウト" class="cls-9" transform="translate(16934.25 396)"><tspan x="0" y="0">ようこそ○○さん｜ログアウト</tspan></text>
  </g>
</svg>
